<?xml version="1.0" standalone="no"?>
<!DOCTYPE svg PUBLIC "-//W3C//DTD SVG 20010904//EN"
 "http://www.w3.org/TR/2001/REC-SVG-20010904/DTD/svg10.dtd">
<svg version="1.0" xmlns="http://www.w3.org/2000/svg"
 width="700.000000pt" height="700.000000pt" viewBox="0 0 700.000000 700.000000"
 preserveAspectRatio="xMidYMid meet">
<metadata>
Created by potrace 1.11, written by Peter Selinger 2001-2013
</metadata>
<g transform="translate(0.000000,700.000000) scale(0.100000,-0.100000)"
fill="#000000" stroke="none">
<path d="M4030 6154 c-47 -9 -90 -26 -90 -35 0 -5 -5 -9 -11 -9 -27 0 -139
-103 -139 -127 0 -7 -4 -13 -9 -13 -9 0 -61 -100 -61 -117 0 -16 -64 -143 -72
-143 -4 0 -8 4 -8 9 0 5 -15 11 -32 15 -37 7 -196 83 -216 103 -7 7 -22 13
-33 13 -10 0 -19 4 -19 8 0 5 -18 15 -40 22 -22 7 -40 17 -40 21 0 4 -22 13
-50 20 -27 7 -50 16 -50 20 0 4 -24 13 -52 19 -29 7 -58 17 -64 21 -6 5 -32
12 -58 15 -25 4 -46 10 -46 14 0 3 -37 12 -82 19 -46 6 -100 17 -120 23 -30 9
-47 8 -80 -3 -56 -18 -85 -48 -93 -95 -3 -22 -10 -52 -14 -69 -13 -44 -34
-386 -30 -483 4 -70 8 -86 24 -98 11 -7 26 -19 34 -25 8 -7 75 -17 155 -23 77
-6 146 -14 151 -17 6 -4 37 -10 70 -14 33 -4 65 -10 70 -14 6 -4 44 -14 85
-21 41 -8 77 -17 80 -20 3 -4 34 -12 69 -19 35 -7 71 -16 80 -21 30 -17 86
-39 129 -51 23 -7 42 -15 42 -19 0 -5 12 -11 27 -15 37 -9 135 -56 151 -72 7
-7 20 -13 28 -13 8 0 14 -4 14 -8 0 -5 16 -14 35 -22 19 -7 36 -19 39 -27 3
-7 12 -13 19 -13 14 0 24 -7 106 -77 112 -95 257 -239 294 -290 17 -24 34 -43
37 -43 4 0 13 -13 20 -30 7 -16 16 -30 20 -30 4 0 13 -13 20 -30 7 -16 15 -30
19 -30 3 0 13 -15 20 -32 26 -58 49 -71 78 -43 10 11 14 28 10 58 -8 66 -38
201 -46 207 -4 3 -13 32 -21 65 -7 33 -16 65 -20 70 -4 6 -10 23 -14 40 -8 34
-45 118 -55 125 -4 3 -13 24 -19 48 -7 23 -17 42 -22 42 -5 0 -12 10 -16 23
-4 12 -28 57 -53 100 -67 113 -71 120 -71 140 0 9 -4 17 -10 17 -5 0 -10 18
-10 40 0 29 4 40 15 40 9 0 18 6 21 14 3 7 35 26 72 42 37 15 69 31 72 35 3 3
15 9 26 13 28 9 121 102 130 130 4 11 9 23 13 26 3 3 15 23 26 44 17 33 20 58
19 150 0 108 -1 113 -37 180 -41 77 -85 131 -116 141 -12 3 -21 10 -21 13 0
10 -56 38 -100 51 -43 12 -146 21 -180 15z"/>
<path d="M1543 5283 c-24 -2 -43 -7 -43 -11 0 -4 -20 -14 -45 -21 -25 -7 -45
-17 -45 -21 0 -4 -13 -13 -30 -20 -16 -7 -30 -15 -30 -19 0 -4 -14 -22 -30
-41 -47 -54 -49 -56 -75 -106 -14 -26 -25 -54 -25 -63 0 -10 -6 -23 -12 -29
-16 -16 -16 -194 -1 -214 5 -7 16 -34 23 -60 7 -26 18 -49 26 -52 8 -3 14 -10
14 -16 0 -5 8 -18 18 -29 39 -42 128 -140 141 -156 16 -20 18 -64 4 -74 -6 -3
-13 -16 -17 -28 -4 -12 -33 -49 -64 -83 -94 -98 -116 -123 -146 -165 -16 -22
-34 -45 -40 -52 -6 -6 -19 -22 -29 -35 -10 -13 -29 -36 -42 -53 -14 -16 -25
-36 -25 -42 0 -7 -4 -13 -9 -13 -5 0 -14 -15 -22 -32 -7 -18 -19 -37 -26 -41
-7 -4 -13 -14 -13 -22 0 -7 -4 -15 -8 -17 -10 -4 -58 -87 -67 -118 -4 -13 -14
-30 -21 -38 -8 -7 -14 -24 -14 -37 0 -13 -6 -25 -12 -27 -8 -3 -13 -27 -13
-69 0 -61 2 -66 37 -101 20 -20 53 -42 73 -49 19 -7 35 -17 35 -21 0 -4 6 -8
12 -8 12 0 40 -12 168 -74 25 -11 47 -24 50 -27 3 -4 24 -12 48 -19 23 -7 42
-16 42 -20 0 -4 21 -13 48 -20 26 -7 51 -17 57 -21 12 -12 105 -11 105 0 0 5
8 12 18 15 9 4 27 28 39 54 50 108 64 144 70 172 3 17 9 30 13 30 5 0 13 15
19 33 6 19 20 51 31 72 11 22 20 45 20 52 0 7 3 13 8 13 4 0 19 21 32 48 14
26 35 61 48 78 12 17 22 36 22 42 0 6 3 12 8 14 8 3 62 84 62 93 0 3 5 11 10
18 6 7 24 32 40 57 16 25 45 63 64 85 20 22 36 44 36 48 0 4 16 22 36 40 59
53 114 110 114 118 0 4 8 10 18 13 9 3 38 25 63 48 72 66 110 98 131 109 11 6
28 18 38 27 38 34 75 59 123 79 20 9 37 19 37 23 0 4 20 13 45 20 25 7 45 16
45 21 0 4 14 10 30 14 17 4 30 10 30 14 0 4 25 14 55 21 30 7 55 16 55 20 0 4
39 13 88 20 48 7 92 16 97 20 6 4 30 10 56 14 52 8 88 40 72 65 -15 24 -54 41
-93 41 -20 0 -42 6 -49 13 -16 16 -648 18 -659 1 -4 -6 -46 -15 -94 -19 -49
-4 -88 -11 -88 -16 0 -5 -35 -9 -77 -9 l-78 0 -22 50 c-13 27 -23 58 -23 70 0
11 -4 20 -9 20 -4 0 -11 22 -14 49 -6 48 -44 146 -70 177 -39 49 -95 104 -104
104 -6 0 -16 7 -23 15 -7 8 -31 20 -54 27 -22 7 -43 15 -46 19 -7 10 -114 18
-167 12z"/>
<path d="M5355 5161 c-6 -4 -49 -14 -97 -21 -49 -6 -88 -16 -88 -20 0 -4 -49
-13 -110 -20 -60 -8 -110 -17 -110 -21 0 -4 -18 -10 -40 -14 -22 -4 -40 -10
-40 -13 0 -4 -13 -13 -29 -20 -17 -7 -36 -26 -43 -43 -7 -16 -16 -29 -20 -29
-11 0 -10 -134 1 -145 5 -6 15 -57 22 -115 7 -58 16 -107 20 -110 19 -15 60
-670 41 -670 -4 0 -14 -55 -21 -122 -7 -68 -17 -127 -21 -133 -4 -5 -13 -52
-20 -102 -7 -51 -16 -93 -21 -93 -4 0 -10 -18 -14 -40 -4 -22 -11 -40 -16 -40
-5 0 -9 -8 -9 -17 0 -19 -22 -86 -31 -93 -3 -3 -12 -23 -19 -45 -7 -22 -16
-42 -19 -45 -3 -3 -19 -32 -36 -65 -16 -33 -36 -66 -42 -73 -7 -7 -13 -19 -13
-26 0 -7 -9 -23 -20 -36 -11 -13 -20 -27 -20 -31 0 -4 -6 -14 -13 -21 -7 -7
-26 -31 -42 -53 -32 -42 -45 -58 -87 -104 -16 -16 -28 -35 -28 -40 0 -6 -3
-11 -8 -11 -11 0 -34 -58 -27 -70 13 -21 95 -6 132 25 7 5 19 16 27 23 8 6 19
12 24 12 4 0 17 8 28 18 10 9 38 30 62 46 23 16 42 33 42 37 0 5 6 9 13 9 6 0
37 19 68 43 31 23 69 51 84 62 29 21 254 243 318 313 21 23 44 42 51 42 8 0
19 7 26 15 13 16 70 21 70 6 0 -5 14 -15 32 -22 18 -7 40 -20 49 -29 59 -53
151 -120 167 -120 4 0 20 -7 37 -16 59 -30 244 -35 264 -6 3 4 22 14 41 22 19
8 62 42 95 76 78 81 83 87 91 118 3 14 10 26 14 26 14 0 33 101 33 180 0 81
-19 180 -34 180 -5 0 -9 6 -9 14 0 8 -6 21 -13 28 -6 7 -32 37 -55 66 -24 28
-50 52 -57 52 -7 0 -15 7 -19 15 -3 8 -10 15 -17 15 -6 0 -22 9 -36 19 -13 11
-44 23 -69 27 -24 3 -44 10 -44 15 0 5 -11 9 -26 9 -35 0 -104 34 -133 66 -32
33 -34 69 -15 249 8 77 19 183 24 235 10 100 4 281 -10 315 -4 11 -13 65 -19
120 -6 54 -15 102 -19 105 -4 3 -14 19 -22 35 -9 17 -26 34 -38 40 -12 5 -22
13 -22 17 0 11 -104 10 -115 -1z"/>
<path d="M2928 4164 c-10 -3 -18 -9 -18 -14 0 -4 -10 -10 -23 -14 -13 -3 -34
-15 -47 -26 -13 -11 -29 -20 -37 -20 -7 0 -13 -4 -13 -9 0 -5 -16 -15 -35 -22
-19 -7 -35 -17 -35 -21 0 -4 -6 -8 -13 -8 -14 0 -55 -42 -74 -77 -18 -32 -15
-83 8 -118 10 -16 26 -45 35 -64 8 -19 22 -40 30 -48 8 -8 17 -25 20 -39 3
-13 10 -24 15 -24 5 0 9 -5 9 -12 0 -6 7 -20 16 -29 16 -18 18 -18 48 -1 17 9
33 20 36 23 3 3 20 11 38 18 17 8 32 17 32 21 0 5 16 14 35 20 19 6 35 15 35
19 0 4 17 15 38 24 36 16 72 37 82 48 3 3 20 11 38 18 17 8 32 17 32 22 0 5
11 11 25 15 15 4 25 13 25 25 0 10 -11 35 -25 55 -14 20 -25 43 -25 50 0 8 -4
14 -9 14 -5 0 -15 15 -22 33 -13 31 -20 42 -46 72 -7 7 -13 18 -13 23 0 29
-112 61 -162 46z"/>
<path d="M3962 4154 c-29 -15 -92 -92 -92 -113 0 -4 -9 -18 -20 -31 -11 -13
-20 -29 -20 -36 0 -7 -3 -14 -7 -16 -5 -1 -16 -19 -26 -38 -9 -19 -28 -53 -42
-75 -13 -22 -27 -47 -31 -55 -4 -8 -11 -17 -14 -20 -8 -6 -69 -114 -100 -175
-21 -43 -42 -77 -51 -85 -3 -3 -16 -24 -29 -47 -13 -24 -26 -43 -29 -43 -6 0
-12 9 -46 76 -11 21 -23 41 -26 44 -4 3 -19 29 -35 58 -16 29 -39 69 -51 90
-13 20 -28 47 -34 60 -7 12 -19 22 -26 22 -14 0 -133 -59 -143 -71 -3 -3 -70
-43 -150 -89 -80 -46 -148 -88 -152 -93 -3 -6 6 -33 20 -61 26 -47 32 -57 58
-89 6 -7 15 -24 19 -38 4 -13 13 -31 19 -39 7 -8 25 -37 41 -65 16 -27 31 -52
35 -55 3 -3 12 -20 19 -37 8 -18 17 -33 21 -33 4 0 11 -11 14 -25 3 -13 17
-41 31 -61 14 -20 25 -41 25 -46 0 -5 6 -16 13 -23 23 -26 32 -41 63 -100 66
-125 79 -150 92 -163 6 -7 12 -17 12 -21 0 -5 21 -19 48 -32 26 -13 50 -28 53
-33 12 -16 97 -19 121 -4 13 8 40 18 60 22 40 7 91 49 102 84 4 12 13 28 20
35 16 15 82 131 97 170 6 15 15 27 19 27 5 0 14 16 20 35 6 19 15 35 19 35 4
0 23 30 42 66 51 100 61 118 76 132 7 7 13 20 13 27 0 7 7 20 14 28 17 16 80
127 97 170 6 15 15 27 19 27 5 0 14 16 20 35 6 19 15 35 19 35 4 0 23 29 42
66 19 36 40 77 48 92 8 15 17 29 21 32 4 3 24 34 46 70 32 54 38 74 39 120 0
62 -31 116 -72 126 -13 4 -23 10 -23 14 0 4 -17 15 -37 24 -37 16 -73 36 -83
46 -3 3 -18 12 -35 20 -16 8 -33 19 -36 24 -13 17 -93 17 -127 0z"/>
<path d="M2223 3608 c-27 -35 -101 -196 -109 -238 -4 -16 -10 -30 -15 -30 -4
0 -11 -20 -15 -45 -3 -25 -10 -45 -14 -45 -4 0 -12 -26 -19 -57 -7 -32 -19
-76 -26 -98 -7 -22 -16 -66 -20 -97 -4 -32 -11 -58 -15 -58 -4 0 -13 -53 -19
-117 -7 -65 -16 -127 -21 -138 -5 -11 -11 -36 -14 -55 -4 -19 -16 -56 -29 -82
l-22 -46 -169 -4 c-120 -2 -171 -7 -173 -15 -3 -7 -21 -17 -41 -24 -20 -7 -42
-17 -49 -23 -7 -6 -25 -20 -39 -31 -28 -21 -70 -61 -91 -88 -25 -31 -63 -126
-63 -156 0 -17 -4 -31 -10 -31 -5 0 -10 -25 -10 -55 0 -30 4 -55 9 -55 4 0 11
-23 14 -52 4 -28 10 -54 15 -57 5 -3 12 -19 16 -35 4 -16 19 -45 33 -65 30
-41 111 -121 122 -121 5 0 18 -9 30 -20 13 -10 44 -22 69 -25 26 -3 55 -10 64
-16 23 -12 98 -12 98 1 0 6 12 10 26 10 36 0 118 21 125 33 4 5 49 12 101 15
l94 5 37 -37 c20 -19 37 -42 37 -51 0 -8 4 -15 9 -15 5 0 14 -14 21 -30 7 -16
16 -30 20 -30 4 0 13 -19 20 -43 7 -23 15 -44 19 -47 11 -9 51 -69 51 -77 0
-9 53 -87 63 -91 4 -2 7 -9 7 -14 0 -6 7 -18 15 -27 9 -9 36 -43 61 -76 47
-62 68 -84 171 -190 63 -63 90 -75 150 -67 30 4 173 151 197 201 4 10 18 24
30 31 13 6 30 24 39 39 8 15 31 43 49 62 73 79 108 121 108 131 0 5 7 16 15
24 10 10 15 35 15 69 0 34 -5 59 -15 69 -8 8 -15 19 -15 23 0 11 -27 40 -69
73 -68 55 -211 187 -211 196 0 4 -20 27 -45 51 -25 24 -45 47 -45 51 0 7 -35
50 -75 93 -8 9 -15 21 -15 27 0 7 -4 12 -9 12 -5 0 -18 15 -30 33 -11 17 -26
41 -33 52 -7 11 -15 22 -18 25 -3 3 -19 28 -35 55 -15 28 -31 52 -35 55 -3 3
-12 21 -20 40 -8 19 -17 37 -20 40 -11 9 -90 177 -90 191 0 8 -6 24 -14 35 -8
11 -20 48 -27 82 -7 34 -16 62 -19 62 -4 0 -13 39 -20 88 -7 48 -17 92 -21 97
-4 6 -11 50 -15 98 -4 48 -11 90 -15 93 -13 7 -11 341 1 349 14 9 13 148 -2
163 -16 16 -43 15 -55 0z"/>
<path d="M5080 2585 c-24 -14 -47 -29 -50 -33 -3 -4 -18 -14 -35 -22 -30 -15
-44 -24 -68 -46 -7 -6 -23 -14 -35 -18 -12 -4 -28 -13 -34 -20 -17 -17 -144
-76 -163 -76 -8 0 -15 -4 -15 -10 0 -5 -16 -12 -35 -16 -19 -3 -35 -10 -35
-14 0 -4 -25 -13 -55 -20 -30 -7 -55 -16 -55 -20 0 -4 -26 -13 -57 -20 -32 -7
-62 -16 -68 -20 -5 -5 -27 -11 -47 -15 -21 -4 -38 -11 -38 -15 0 -8 -132 -30
-185 -30 -18 0 -35 -5 -37 -12 -6 -16 -455 -18 -489 -1 -13 6 -63 16 -112 23
-48 7 -89 16 -92 20 -3 5 -23 11 -45 15 -22 4 -40 10 -40 14 0 4 -26 14 -57
21 -32 7 -67 18 -78 25 -11 7 -46 19 -77 26 -46 10 -60 10 -73 -1 -21 -18 -19
-33 10 -64 14 -15 25 -29 25 -32 0 -10 115 -116 160 -148 25 -17 47 -33 50
-37 4 -4 52 -40 95 -71 5 -4 23 -19 39 -33 16 -14 32 -25 36 -25 6 0 22 -12
67 -50 7 -5 24 -15 38 -22 14 -6 25 -15 25 -19 0 -4 17 -13 38 -20 20 -7 46
-18 57 -25 11 -6 35 -15 53 -19 17 -4 32 -10 32 -15 0 -4 11 -11 25 -14 14 -4
43 -24 65 -45 34 -33 40 -45 40 -79 0 -23 -4 -44 -10 -47 -5 -3 -10 -13 -10
-21 0 -8 -9 -35 -20 -58 -11 -24 -22 -62 -26 -85 -4 -22 -10 -41 -15 -41 -12
0 -12 -175 0 -198 5 -9 14 -35 21 -57 7 -21 18 -45 24 -51 6 -6 18 -22 26 -35
32 -51 116 -127 155 -140 22 -8 43 -18 47 -24 10 -14 267 -13 276 1 4 6 18 14
32 17 58 14 138 95 184 187 38 76 69 251 47 273 -17 17 -15 207 2 207 7 0 23
9 35 21 14 12 47 24 85 31 34 5 71 14 82 18 11 5 50 12 88 15 37 4 67 10 67
14 0 3 30 12 67 19 37 7 70 17 73 21 3 4 29 14 58 21 28 6 52 16 52 21 0 5 7
9 15 9 14 0 194 88 205 101 3 3 20 11 39 19 19 7 50 30 69 49 47 47 55 113 22
187 -12 27 -26 51 -30 54 -4 3 -13 22 -19 43 -7 20 -16 37 -20 37 -4 0 -13 16
-20 35 -7 19 -17 35 -22 35 -5 0 -9 6 -9 14 0 7 -17 40 -38 72 -56 89 -61 96
-79 132 -9 17 -20 32 -25 32 -4 0 -8 5 -8 11 0 7 -12 23 -27 37 -41 37 -113
40 -173 7z"/>
</g>
</svg>
